<svg width="24" height="24" viewBox="0 0 24 24" fill="none" xmlns="http://www.w3.org/2000/svg">
<mask id="mask0_2017_909" style="mask-type:alpha" maskUnits="userSpaceOnUse" x="0" y="0" width="24" height="24">
<rect width="24" height="24" fill="#D9D9D9"/>
</mask>
<g mask="url(#mask0_2017_909)">
<path d="M9.075 16.25L12 14.475L14.925 16.25L14.15 12.925L16.75 10.675L13.325 10.4L12 7.25001L10.675 10.4L7.25 10.675L9.85 12.925L9.075 16.25ZM12 24.25L8.525 20.85H3.15V15.475L-0.25 12L3.15 8.52501V3.15001H8.525L12 -0.274994L15.475 3.15001H20.85V8.52501L24.275 12L20.85 15.475V20.85H15.475L12 24.25ZM12 19.85L14.15 17.7H17.7V14.15L19.85 12L17.7 9.85001V6.30001H14.15L12 4.15001L9.85 6.30001H6.3V9.85001L4.15 12L6.3 14.15V17.7H9.85L12 19.85Z" fill="white"/>
</g>
</svg>
