<svg width="23" height="24" viewBox="0 0 23 24" fill="none" xmlns="http://www.w3.org/2000/svg">
<mask id="mask0_2017_868" style="mask-type:alpha" maskUnits="userSpaceOnUse" x="0" y="0" width="23" height="24">
<rect x="0.220459" y="0.8983" width="22.7797" height="22.7797" fill="white"/>
</mask>
<g mask="url(#mask0_2017_868)">
<path d="M2.32969 21.7797C1.74965 21.7797 1.2531 21.5752 0.840045 21.1663C0.426988 20.7573 0.220459 20.2658 0.220459 19.6915V5.07457C0.220459 4.50033 0.426988 4.00875 0.840045 3.59983C1.2531 3.1909 1.74965 2.98644 2.32969 2.98644H3.3843V0.8983H5.49353V2.98644H13.9304V0.8983H16.0397V2.98644H17.0943C17.6743 2.98644 18.1709 3.1909 18.5839 3.59983C18.997 4.00875 19.2035 4.50033 19.2035 5.07457V19.6915C19.2035 20.2658 18.997 20.7573 18.5839 21.1663C18.1709 21.5752 17.6743 21.7797 17.0943 21.7797H2.32969ZM2.32969 19.6915H17.0943V9.25084H2.32969V19.6915ZM2.32969 7.16271H17.0943V5.07457H2.32969V7.16271ZM9.71198 13.4271C9.41318 13.4271 9.16271 13.3271 8.96057 13.1269C8.75844 12.9268 8.65737 12.6789 8.65737 12.383C8.65737 12.0872 8.75844 11.8393 8.96057 11.6391C9.16271 11.439 9.41318 11.339 9.71198 11.339C10.0108 11.339 10.2613 11.439 10.4634 11.6391C10.6655 11.8393 10.7666 12.0872 10.7666 12.383C10.7666 12.6789 10.6655 12.9268 10.4634 13.1269C10.2613 13.3271 10.0108 13.4271 9.71198 13.4271ZM5.49353 13.4271C5.19472 13.4271 4.94425 13.3271 4.74212 13.1269C4.53998 12.9268 4.43892 12.6789 4.43892 12.383C4.43892 12.0872 4.53998 11.8393 4.74212 11.6391C4.94425 11.439 5.19472 11.339 5.49353 11.339C5.79234 11.339 6.04281 11.439 6.24494 11.6391C6.44708 11.8393 6.54814 12.0872 6.54814 12.383C6.54814 12.6789 6.44708 12.9268 6.24494 13.1269C6.04281 13.3271 5.79234 13.4271 5.49353 13.4271ZM13.9304 13.4271C13.6316 13.4271 13.3812 13.3271 13.179 13.1269C12.9769 12.9268 12.8758 12.6789 12.8758 12.383C12.8758 12.0872 12.9769 11.8393 13.179 11.6391C13.3812 11.439 13.6316 11.339 13.9304 11.339C14.2292 11.339 14.4797 11.439 14.6819 11.6391C14.884 11.8393 14.9851 12.0872 14.9851 12.383C14.9851 12.6789 14.884 12.9268 14.6819 13.1269C14.4797 13.3271 14.2292 13.4271 13.9304 13.4271ZM9.71198 17.6034C9.41318 17.6034 9.16271 17.5033 8.96057 17.3032C8.75844 17.1031 8.65737 16.8551 8.65737 16.5593C8.65737 16.2635 8.75844 16.0155 8.96057 15.8154C9.16271 15.6153 9.41318 15.5152 9.71198 15.5152C10.0108 15.5152 10.2613 15.6153 10.4634 15.8154C10.6655 16.0155 10.7666 16.2635 10.7666 16.5593C10.7666 16.8551 10.6655 17.1031 10.4634 17.3032C10.2613 17.5033 10.0108 17.6034 9.71198 17.6034ZM5.49353 17.6034C5.19472 17.6034 4.94425 17.5033 4.74212 17.3032C4.53998 17.1031 4.43892 16.8551 4.43892 16.5593C4.43892 16.2635 4.53998 16.0155 4.74212 15.8154C4.94425 15.6153 5.19472 15.5152 5.49353 15.5152C5.79234 15.5152 6.04281 15.6153 6.24494 15.8154C6.44708 16.0155 6.54814 16.2635 6.54814 16.5593C6.54814 16.8551 6.44708 17.1031 6.24494 17.3032C6.04281 17.5033 5.79234 17.6034 5.49353 17.6034ZM13.9304 17.6034C13.6316 17.6034 13.3812 17.5033 13.179 17.3032C12.9769 17.1031 12.8758 16.8551 12.8758 16.5593C12.8758 16.2635 12.9769 16.0155 13.179 15.8154C13.3812 15.6153 13.6316 15.5152 13.9304 15.5152C14.2292 15.5152 14.4797 15.6153 14.6819 15.8154C14.884 16.0155 14.9851 16.2635 14.9851 16.5593C14.9851 16.8551 14.884 17.1031 14.6819 17.3032C14.4797 17.5033 14.2292 17.6034 13.9304 17.6034Z" fill="white"/>
</g>
</svg>
