<svg width="24" height="24" viewBox="0 0 24 24" fill="none" xmlns="http://www.w3.org/2000/svg">
<mask id="mask0_2017_901" style="mask-type:alpha" maskUnits="userSpaceOnUse" x="0" y="0" width="24" height="24">
<rect width="24" height="24" fill="#D9D9D9"/>
</mask>
<g mask="url(#mask0_2017_901)">
<path d="M11.9999 14.2C11.6599 14.2 11.3749 14.085 11.1449 13.855C10.9149 13.625 10.7999 13.34 10.7999 13C10.7999 12.66 10.9149 12.375 11.1449 12.145C11.3749 11.915 11.6599 11.8 11.9999 11.8C12.3399 11.8 12.6249 11.915 12.8549 12.145C13.0849 12.375 13.1999 12.66 13.1999 13C13.1999 13.34 13.0849 13.625 12.8549 13.855C12.6249 14.085 12.3399 14.2 11.9999 14.2ZM7.9999 14.2C7.6599 14.2 7.3749 14.085 7.1449 13.855C6.9149 13.625 6.7999 13.34 6.7999 13C6.7999 12.66 6.9149 12.375 7.1449 12.145C7.3749 11.915 7.6599 11.8 7.9999 11.8C8.3399 11.8 8.6249 11.915 8.8549 12.145C9.0849 12.375 9.1999 12.66 9.1999 13C9.1999 13.34 9.0849 13.625 8.8549 13.855C8.6249 14.085 8.3399 14.2 7.9999 14.2ZM15.9999 14.2C15.6832 14.2 15.4041 14.085 15.1624 13.855C14.9207 13.625 14.7999 13.34 14.7999 13C14.7999 12.66 14.9207 12.375 15.1624 12.145C15.4041 11.915 15.6874 11.8 16.0124 11.8C16.3374 11.8 16.6166 11.915 16.8499 12.145C17.0832 12.375 17.1999 12.66 17.1999 13C17.1999 13.34 17.0849 13.625 16.8549 13.855C16.6249 14.085 16.3399 14.2 15.9999 14.2ZM11.9999 18.2C11.6599 18.2 11.3749 18.0792 11.1449 17.8375C10.9149 17.5958 10.7999 17.3125 10.7999 16.9875C10.7999 16.6625 10.9149 16.3833 11.1449 16.15C11.3749 15.9167 11.6599 15.8 11.9999 15.8C12.3399 15.8 12.6249 15.915 12.8549 16.145C13.0849 16.375 13.1999 16.66 13.1999 17C13.1999 17.3167 13.0849 17.5958 12.8549 17.8375C12.6249 18.0792 12.3399 18.2 11.9999 18.2ZM7.9999 18.2C7.6599 18.2 7.3749 18.0792 7.1449 17.8375C6.9149 17.5958 6.7999 17.3125 6.7999 16.9875C6.7999 16.6625 6.9149 16.3833 7.1449 16.15C7.3749 15.9167 7.6599 15.8 7.9999 15.8C8.3399 15.8 8.6249 15.915 8.8549 16.145C9.0849 16.375 9.1999 16.66 9.1999 17C9.1999 17.3167 9.0849 17.5958 8.8549 17.8375C8.6249 18.0792 8.3399 18.2 7.9999 18.2ZM15.9999 18.2C15.6832 18.2 15.4041 18.0792 15.1624 17.8375C14.9207 17.5958 14.7999 17.3125 14.7999 16.9875C14.7999 16.6625 14.9207 16.3833 15.1624 16.15C15.4041 15.9167 15.6874 15.8 16.0124 15.8C16.3374 15.8 16.6166 15.915 16.8499 16.145C17.0832 16.375 17.1999 16.66 17.1999 17C17.1999 17.3167 17.0849 17.5958 16.8549 17.8375C16.6249 18.0792 16.3399 18.2 15.9999 18.2ZM5.2999 22.85C4.41657 22.85 3.67074 22.5458 3.0624 21.9375C2.45407 21.3292 2.1499 20.5833 2.1499 19.7V6.29999C2.1499 5.41666 2.45407 4.67083 3.0624 4.06249C3.67074 3.45416 4.41657 3.14999 5.2999 3.14999H5.9999V1.14999H8.5749V3.14999H15.4249V1.14999H17.9999V3.14999H18.6999C19.5832 3.14999 20.3291 3.45416 20.9374 4.06249C21.5457 4.67083 21.8499 5.41666 21.8499 6.29999V19.7C21.8499 20.5833 21.5457 21.3292 20.9374 21.9375C20.3291 22.5458 19.5832 22.85 18.6999 22.85H5.2999ZM5.2999 19.7H18.6999V9.99999H5.2999V19.7Z" fill="white"/>
</g>
</svg>
