<svg width="24" height="24" viewBox="0 0 24 24" fill="none" xmlns="http://www.w3.org/2000/svg">
<mask id="mask0_2017_897" style="mask-type:alpha" maskUnits="userSpaceOnUse" x="0" y="0" width="24" height="24">
<rect width="24" height="24" fill="#D9D9D9"/>
</mask>
<g mask="url(#mask0_2017_897)">
<path d="M12.0124 16.8C12.3374 16.8 12.6166 16.6833 12.8499 16.45C13.0832 16.2167 13.1999 15.9375 13.1999 15.6125C13.1999 15.2875 13.0849 15.0083 12.8549 14.775C12.6249 14.5417 12.3399 14.425 11.9999 14.425C11.6832 14.425 11.4041 14.54 11.1624 14.77C10.9207 15 10.7999 15.285 10.7999 15.625C10.7999 15.9417 10.9207 16.2167 11.1624 16.45C11.4041 16.6833 11.6874 16.8 12.0124 16.8ZM12.0124 13.2C12.3374 13.2 12.6166 13.0792 12.8499 12.8375C13.0832 12.5958 13.1999 12.3125 13.1999 11.9875C13.1999 11.6625 13.0849 11.3833 12.8549 11.15C12.6249 10.9167 12.3399 10.8 11.9999 10.8C11.6832 10.8 11.4041 10.915 11.1624 11.145C10.9207 11.375 10.7999 11.66 10.7999 12C10.7999 12.3167 10.9207 12.5958 11.1624 12.8375C11.4041 13.0792 11.6874 13.2 12.0124 13.2ZM12.0124 9.57499C12.3374 9.57499 12.6166 9.45416 12.8499 9.21249C13.0832 8.97083 13.1999 8.68749 13.1999 8.36249C13.1999 8.03749 13.0849 7.76249 12.8549 7.53749C12.6249 7.31249 12.3399 7.19999 11.9999 7.19999C11.6832 7.19999 11.4041 7.31258 11.1624 7.53774C10.9207 7.76308 10.7999 8.04216 10.7999 8.37499C10.7999 8.69166 10.9207 8.97083 11.1624 9.21249C11.4041 9.45416 11.6874 9.57499 12.0124 9.57499ZM19.6999 20.85H4.2999C3.41657 20.85 2.67074 20.5458 2.0624 19.9375C1.45407 19.3292 1.1499 18.5833 1.1499 17.7V13.55C1.68324 13.55 2.1499 13.4042 2.5499 13.1125C2.9499 12.8208 3.1499 12.45 3.1499 12C3.1499 11.5167 2.9499 11.1375 2.5499 10.8625C2.1499 10.5875 1.68324 10.45 1.1499 10.45V6.29999C1.1499 5.41666 1.45407 4.67083 2.0624 4.06249C2.67074 3.45416 3.41657 3.14999 4.2999 3.14999H19.6999C20.5832 3.14999 21.3291 3.45416 21.9374 4.06249C22.5457 4.67083 22.8499 5.41666 22.8499 6.29999V10.45C22.3332 10.45 21.8707 10.5875 21.4624 10.8625C21.0541 11.1375 20.8499 11.5167 20.8499 12C20.8499 12.45 21.0541 12.8208 21.4624 13.1125C21.8707 13.4042 22.3332 13.55 22.8499 13.55V17.7C22.8499 18.5833 22.5457 19.3292 21.9374 19.9375C21.3291 20.5458 20.5832 20.85 19.6999 20.85ZM19.6999 17.7V15.575C19.0999 15.1917 18.6166 14.6843 18.2499 14.053C17.8832 13.4218 17.6999 12.7343 17.6999 11.9905C17.6999 11.2468 17.8832 10.5625 18.2499 9.93749C18.6166 9.31249 19.0999 8.80833 19.6999 8.42499V6.29999H4.2999V8.42499C4.93324 8.80833 5.4249 9.31374 5.7749 9.94124C6.1249 10.5687 6.2999 11.2521 6.2999 11.9912C6.2999 12.7304 6.1249 13.4167 5.7749 14.05C5.4249 14.6833 4.93324 15.1917 4.2999 15.575V17.7H19.6999Z" fill="white"/>
</g>
</svg>
