<svg width="24" height="24" viewBox="0 0 24 24" fill="none" xmlns="http://www.w3.org/2000/svg">
<path d="M12.173 10.92V14.2H20.013C19.773 16.04 19.16 17.387 18.226 18.333C17.079 19.48 15.293 20.733 12.173 20.733C7.346 20.733 3.573 16.84 3.573 12.013C3.573 7.186 7.346 3.293 12.173 3.293C14.773 3.293 16.68 4.32 18.08 5.64L20.387 3.333C18.44 1.44 15.826 0 12.173 0C5.56 0 0 5.387 0 12C0 18.613 5.56 24 12.173 24C15.746 24 18.44 22.827 20.546 20.64C22.706 18.48 23.386 15.427 23.386 12.973C23.386 12.213 23.333 11.506 23.213 10.92H12.173Z" fill="#403194"/>
</svg>
