<svg width="88" height="101" viewBox="0 0 88 101" fill="none" xmlns="http://www.w3.org/2000/svg">
<path d="M43.9653 20.1514C41.2347 20.1514 38.8916 19.1734 36.9361 17.2173C34.9805 15.2613 34.0027 12.9143 34.0027 10.1765C34.0027 7.43864 34.9721 5.05809 36.9109 3.03486C38.8497 1.01162 41.1844 0 43.915 0C46.6456 0 48.9887 1.00797 50.9442 3.02393C52.8998 5.03907 53.8775 7.42488 53.8775 10.1813C53.8775 12.9038 52.9082 15.2459 50.9694 17.2076C49.0306 19.1702 46.6959 20.1514 43.9653 20.1514ZM29.932 101V36.9039C24.5283 36.5316 19.3748 36.0165 14.4715 35.3585C9.56825 34.7005 4.74442 33.7185 0 32.4123L2.51429 23.0649C9.37868 24.8454 16.2211 26.0593 23.0416 26.7067C29.8629 27.3542 36.8271 27.6779 43.9342 27.6779C51.042 27.6779 58.0281 27.3542 64.8925 26.7067C71.7569 26.0593 78.6612 24.8454 85.6054 23.0649L88 32.4123C83.1311 33.6262 78.2422 34.5771 73.3333 35.265C68.4245 35.9529 63.3361 36.5028 58.068 36.9148V101H48.4898V68.4664H39.3905V101H29.932Z" fill="#F3CC42"/>
</svg>
